# xmcd CD database file
#
# Track frame offsets:
#	150
#	12267
#	25702
#	33872
#	50140
#	71520
#	85042
#	105615
#	118527
#	135032
#	147822
#	159862
#	176907
#	191359
#	202684
#
# Disc length: 2866 seconds
#
# Revision: 0
# Processed by: cddbd v1.5.1PL0 Copyright (c) Steve Scherf et al.
# Submitted via: CDex 1.51
#
DISCID=b20b300f
DTITLE=Various Artist - The Sensational Sounds Of Country Vol 2
DYEAR=9999
DGENRE=Country
TTITLE0=El Cumbanchero
TTITLE1=She's Got You
TTITLE2=Life In The Finland Woods
TTITLE3=Kawuga
TTITLE4=The Dance
TTITLE5=Take These Chains From My Heart
TTITLE6=Last Date
TTITLE7=I Fall To Pieces
TTITLE8=Amazing Grace
TTITLE9=Wabash Cannonball
TTITLE10=Your Cheatin' Heart
TTITLE11=Friends In Low Places
TTITLE12=Jambalaya
TTITLE13=Leavin' On Your Mind
TTITLE14=The Fishing Hole
EXTD=YEAR: 9999
EXTT0=
EXTT1=
EXTT2=
EXTT3=
EXTT4=
EXTT5=
EXTT6=
EXTT7=
EXTT8=
EXTT9=
EXTT10=
EXTT11=
EXTT12=
EXTT13=
EXTT14=
PLAYORDER=
